<?xml version="1.0" standalone="no"?>
<!DOCTYPE svg PUBLIC "-//W3C//DTD SVG 20010904//EN"
 "http://www.w3.org/TR/2001/REC-SVG-20010904/DTD/svg10.dtd">
<svg version="1.0" xmlns="http://www.w3.org/2000/svg"
 width="100%" height="100%" viewBox="0 0 200.000000 200.000000"
 preserveAspectRatio="xMidYMid meet">
<metadata>
Created by potrace 1.16, written by Peter Selinger 2001-2019
</metadata>
<g transform="translate(0.000000,200.000000) scale(0.100000,-0.100000)"
fill="rgb(6,242,255)" stroke="none">
<path d="M628 1470 c-30 -18 -20 -28 46 -49 180 -56 546 -51 700 9 l30 11 -21
20 c-19 20 -22 20 -71 5 -136 -40 -403 -45 -557 -10 -38 9 -79 18 -90 20 -11
2 -28 -1 -37 -6z"/>
<path d="M785 1065 c-5 -2 -29 -9 -52 -15 l-43 -11 0 -49 0 -49 54 -15 c30 -9
62 -16 71 -16 9 0 41 7 71 16 l54 15 0 49 0 49 -54 15 c-52 16 -80 18 -101 11z"/>
<path d="M1165 1065 c-5 -2 -29 -9 -52 -15 l-43 -11 0 -49 0 -49 54 -15 c30
-9 62 -16 71 -16 9 0 41 7 71 16 l54 15 0 49 0 49 -54 15 c-52 16 -80 18 -101
11z"/>
<path d="M638 734 c-3 -45 -2 -47 40 -76 54 -37 189 -100 265 -124 55 -17 59
-17 115 0 73 23 193 78 253 117 46 29 47 31 42 72 -3 23 -7 44 -9 46 -2 2 -27
-7 -56 -19 -188 -81 -409 -77 -592 11 -22 11 -43 19 -47 19 -4 0 -9 -21 -11
-46z"/>
<path d="M1462 454 c-49 -34 -274 -104 -335 -104 -14 0 -42 20 -72 50 -27 28
-53 50 -57 50 -4 0 -28 -22 -54 -50 -38 -40 -53 -50 -80 -50 -66 0 -228 46
-312 89 -54 28 -62 27 -62 -8 0 -27 6 -32 72 -59 80 -33 181 -60 272 -73 52
-7 65 -14 105 -53 26 -26 53 -46 62 -46 8 0 37 23 64 50 38 38 56 50 80 50 47
0 219 47 290 79 59 27 65 32 65 60 0 35 -6 38 -38 15z"/>
<path d="M260 253 c-38 -7 -43 -17 -36 -66 10 -68 22 -78 73 -65 39 11 70 7
131 -18 6 -3 12 1 12 9 0 8 7 28 15 43 20 39 19 80 -2 89 -23 9 -161 15 -193
8z"/>
<path d="M1585 256 c-5 -2 -22 -7 -37 -10 -20 -5 -28 -13 -28 -29 0 -34 33
-118 45 -113 55 24 89 29 128 18 36 -9 44 -9 54 5 17 22 28 102 15 115 -10 10
-158 21 -177 14z"/>
</g>
<g transform="translate(0.000000,200.000000) scale(0.100000,-0.100000)"
fill="rgb(38,0,72)" stroke="none">
<path d="M876 1560 c-61 -11 -136 -35 -195 -63 l-46 -21 56 -17 c162 -50 464
-51 629 -2 l55 16 -63 29 c-34 17 -86 36 -115 44 -64 18 -254 26 -321 14z"/>
<path d="M560 1416 c-62 -53 -116 -135 -136 -205 -54 -184 78 -390 306 -479
100 -38 144 -46 270 -46 148 -1 203 11 326 69 114 55 193 129 238 224 27 57
31 77 31 146 0 70 -4 89 -32 145 -20 40 -55 88 -92 124 l-60 59 -73 -21 c-192
-56 -489 -55 -662 2 l-68 23 -48 -41z m316 -372 c53 -15 54 -16 54 -54 0 -38
-1 -39 -54 -54 -30 -9 -57 -16 -61 -16 -4 0 -31 7 -61 16 -53 15 -54 16 -54
54 0 38 2 40 43 50 23 6 47 13 52 15 18 6 26 5 81 -11z m380 0 c53 -15 54 -16
54 -54 0 -38 -1 -39 -54 -54 -30 -9 -57 -16 -61 -16 -4 0 -31 7 -61 16 -53 15
-54 16 -54 54 0 38 2 40 43 50 23 6 47 13 52 15 18 6 26 5 81 -11z"/>
<path d="M592 660 c-45 -43 -87 -117 -97 -171 l-7 -35 69 -31 c98 -44 194 -72
305 -87 34 -4 40 0 87 48 l49 53 48 -48 c38 -39 55 -49 81 -49 70 0 272 61
341 102 29 18 32 24 26 52 -11 52 -52 124 -95 167 l-40 40 -42 -29 c-60 -42
-150 -85 -239 -117 l-78 -28 -77 28 c-90 32 -180 75 -240 116 -23 16 -44 29
-46 29 -3 0 -23 -18 -45 -40z"/>
<path d="M291 565 c-47 -40 -73 -122 -75 -235 l-1 -95 35 5 c44 6 133 6 185 0
l40 -5 -1 95 c-2 113 -28 195 -75 235 -39 32 -69 32 -108 0z"/>
<path d="M1591 565 c-47 -40 -73 -122 -75 -235 l-1 -95 40 5 c52 6 141 6 185
0 l35 -5 -1 95 c-2 113 -28 195 -75 235 -39 32 -69 32 -108 0z"/>
<path d="M495 383 c34 -181 261 -333 500 -333 195 0 397 106 468 247 24 46 45
123 34 123 -2 0 -34 -14 -70 -30 -73 -33 -244 -80 -292 -80 -22 0 -43 -13 -82
-52 l-53 -52 -48 47 c-44 43 -55 49 -113 57 -94 14 -213 47 -286 80 l-65 30 7
-37z"/>
</g>
</svg>
