<?xml version="1.0" standalone="no"?>
<!DOCTYPE svg PUBLIC "-//W3C//DTD SVG 20010904//EN"
 "http://www.w3.org/TR/2001/REC-SVG-20010904/DTD/svg10.dtd">
<svg version="1.0" xmlns="http://www.w3.org/2000/svg"
 width="100%" height="100%" viewBox="0 0 200.000000 200.000000"
 preserveAspectRatio="xMidYMid meet">
<metadata>
Created by potrace 1.16, written by Peter Selinger 2001-2019
</metadata>
<g transform="translate(0.000000,200.000000) scale(0.100000,-0.100000)"
fill="rgb(6,242,255)" stroke="none">
<path d="M628 1870 c-30 -18 -20 -28 46 -49 180 -56 546 -51 700 9 l30 11 -21
20 c-19 20 -22 20 -71 5 -136 -40 -403 -45 -557 -10 -38 9 -79 18 -90 20 -11
2 -28 -1 -37 -6z"/>
<path d="M638 1134 c-3 -45 -2 -47 40 -76 54 -37 189 -100 265 -124 55 -17 59
-17 115 0 73 23 193 78 253 117 46 29 47 31 42 72 -3 23 -7 44 -9 46 -2 2 -27
-7 -56 -19 -188 -81 -409 -77 -592 11 -22 11 -43 19 -47 19 -4 0 -9 -21 -11
-46z"/>
<path d="M1462 854 c-31 -21 -165 -70 -249 -89 -177 -42 -212 -45 -282 -31
-36 8 -97 20 -136 26 -80 15 -181 47 -242 79 -55 28 -63 27 -63 -8 0 -27 6
-32 72 -59 93 -38 216 -67 343 -81 81 -9 120 -9 205 4 132 18 244 48 326 85
58 26 64 31 64 59 0 35 -6 38 -38 15z"/>
<path d="M425 671 c-11 -18 -96 -24 -151 -11 -30 7 -57 11 -60 8 -9 -10 15
-122 30 -137 20 -20 108 -26 161 -11 48 13 57 29 71 118 6 40 5 42 -19 42 -14
0 -28 -4 -32 -9z"/>
<path d="M1514 638 c14 -89 23 -105 71 -118 53 -15 141 -9 161 11 15 15 39
127 30 137 -3 3 -30 -1 -60 -8 -55 -13 -140 -7 -151 11 -4 5 -18 9 -32 9 -24
0 -25 -2 -19 -42z"/>
</g>
<g transform="translate(0.000000,200.000000) scale(0.100000,-0.100000)"
fill="rgb(38,0,72)" stroke="none">
<path d="M876 1960 c-61 -11 -136 -35 -195 -63 l-46 -21 56 -17 c162 -50 464
-51 629 -2 l55 16 -63 29 c-34 17 -86 36 -115 44 -64 18 -254 26 -321 14z"/>
<path d="M560 1816 c-62 -53 -116 -135 -136 -205 -54 -184 78 -390 306 -479
100 -38 144 -46 270 -46 148 -1 203 11 326 69 114 55 193 129 238 224 27 57
31 77 31 146 0 70 -4 89 -32 145 -20 40 -55 88 -92 124 l-60 59 -73 -21 c-192
-56 -489 -55 -662 2 l-68 23 -48 -41z"/>
<path d="M592 1060 c-45 -43 -87 -117 -97 -171 l-7 -35 69 -31 c80 -36 147
-58 223 -72 30 -5 92 -17 136 -26 74 -15 89 -15 160 -1 185 35 325 77 392 118
29 18 32 24 26 52 -11 52 -52 124 -95 167 l-40 40 -42 -29 c-60 -42 -150 -85
-239 -117 l-78 -28 -77 28 c-90 32 -180 75 -240 116 -23 16 -44 29 -46 29 -3
0 -23 -18 -45 -40z"/>
<path d="M291 965 c-40 -35 -71 -121 -78 -220 l-6 -81 56 -14 c59 -14 152 -9
171 10 5 5 19 10 29 10 19 0 20 5 14 78 -11 138 -67 242 -132 242 -13 0 -37
-11 -54 -25z"/>
<path d="M1591 965 c-40 -34 -70 -119 -78 -217 -6 -73 -5 -78 14 -78 10 0 24
-5 29 -10 19 -19 112 -24 171 -10 l56 14 -6 81 c-10 140 -67 245 -132 245 -13
0 -37 -11 -54 -25z"/>
<path d="M495 783 c34 -181 261 -333 500 -333 195 0 397 106 468 247 24 46 45
123 34 123 -2 0 -34 -13 -69 -30 -83 -37 -195 -67 -325 -85 -89 -13 -118 -13
-215 0 -135 17 -248 46 -335 85 l-65 30 7 -37z"/>
</g>
</svg>
