<?xml version="1.0" standalone="no"?>
<!DOCTYPE svg PUBLIC "-//W3C//DTD SVG 20010904//EN"
 "http://www.w3.org/TR/2001/REC-SVG-20010904/DTD/svg10.dtd">
<svg version="1.0" xmlns="http://www.w3.org/2000/svg"
 width="100%" height="100%" viewBox="0 0 150.000000 150.000000"
 preserveAspectRatio="xMidYMid meet">
<g transform="translate(0.000000,150.000000) scale(0.100000,-0.100000)"
fill="rgb(173,117,66)" stroke="none">
<path d="M210 755 l0 -535 535 0 535 0 0 535 0 535 -535 0 -535 0 0 -535z"/>
</g>
<g transform="translate(0.000000,150.000000) scale(0.100000,-0.100000)"
fill="rgb(210,143,81)" stroke="none">
<path d="M175 1426 c-40 -17 -84 -63 -101 -103 -11 -26 -14 -140 -14 -575 0
-524 1 -543 20 -584 12 -24 39 -54 62 -70 l41 -29 566 0 566 0 36 24 c20 14
47 41 60 60 l24 35 3 540 c2 298 0 556 -3 574 -8 42 -59 100 -110 123 -37 17
-79 19 -580 18 -426 0 -546 -3 -570 -13z m1075 -671 l0 -505 -505 0 -505 0 0
505 0 505 505 0 505 0 0 -505z"/>
<path d="M1076 1220 c-71 -62 -756 -756 -756 -766 0 -6 -7 -18 -16 -25 -9 -7
-20 -24 -25 -37 -8 -21 -3 -32 37 -79 53 -62 79 -67 127 -24 15 14 27 22 27
19 0 -3 162 158 360 359 198 200 360 370 360 377 0 7 11 23 25 36 36 34 31 60
-22 112 -59 56 -79 61 -117 28z"/>
</g>

</svg>
