<?xml version="1.0" standalone="no"?>
<!DOCTYPE svg PUBLIC "-//W3C//DTD SVG 20010904//EN"
 "http://www.w3.org/TR/2001/REC-SVG-20010904/DTD/svg10.dtd">
<svg version="1.0" xmlns="http://www.w3.org/2000/svg"
 width="100%" height="100%" viewBox="0 0 200.000000 200.000000"
 preserveAspectRatio="xMidYMid meet">
<metadata>
Created by potrace 1.16, written by Peter Selinger 2001-2019
</metadata>
<g transform="translate(0.000000,200.000000) scale(0.100000,-0.100000)"
fill="rgb(6,242,255)" stroke="none">
<path d="M271 1691 c-61 -40 152 -91 379 -91 168 0 380 36 380 65 0 29 -27 37
-79 21 -135 -40 -402 -45 -556 -10 -38 9 -79 18 -90 20 -11 3 -26 0 -34 -5z"/>
<path d="M95 1346 c-3 -36 -3 -85 0 -110 l7 -46 214 0 214 0 0 110 0 110 -214
0 -214 0 -7 -64z"/>
<path d="M280 951 c0 -47 1 -50 48 -80 61 -39 180 -94 255 -117 55 -17 59 -17
115 0 74 24 173 68 240 109 51 31 52 32 52 79 0 26 -4 48 -9 48 -5 0 -30 -10
-57 -22 -180 -79 -406 -74 -588 13 -22 11 -43 19 -48 19 -4 0 -8 -22 -8 -49z"/>
<path d="M995 708 c-55 -28 -102 -52 -103 -53 -7 -6 52 -107 64 -112 11 -4
178 61 196 76 6 5 -40 123 -53 135 -2 2 -49 -19 -104 -46z"/>
<path d="M204 681 c-15 -25 -19 -27 -31 -15 -24 24 -43 17 -43 -16 0 -23 5
-31 25 -36 34 -8 59 -57 62 -119 1 -27 5 -83 8 -123 l7 -73 54 6 c70 7 78 8
86 19 3 5 5 54 3 108 l-3 100 76 -9 c106 -11 315 -5 324 10 19 31 8 35 -72 30
-44 -3 -135 0 -202 7 -148 15 -194 35 -223 97 -24 50 -47 55 -71 14z"/>
<path d="M835 425 c-5 -2 -22 -6 -37 -9 -33 -8 -36 -34 -12 -97 16 -39 18 -41
48 -33 17 5 61 8 98 7 l67 -2 11 40 c17 60 10 83 -25 90 -32 7 -133 10 -150 4z"/>
</g>
<g transform="translate(0.000000,200.000000) scale(0.100000,-0.100000)"
fill="rgb(38,0,72)" stroke="none">
<path d="M526 1770 c-86 -15 -216 -63 -216 -79 0 -21 195 -50 335 -51 104 0
248 16 308 34 l42 13 -58 28 c-32 15 -82 34 -110 41 -65 18 -236 26 -301 14z"/>
<path d="M213 1628 c-68 -62 -79 -76 -113 -143 -41 -82 -47 -139 -25 -223 10
-37 23 -72 29 -79 6 -6 24 -30 41 -53 16 -23 55 -60 85 -83 30 -23 62 -49 70
-58 16 -17 94 -49 170 -70 62 -18 281 -17 350 0 66 17 160 57 160 68 0 5 16
17 36 28 62 33 144 123 178 194 63 135 35 261 -86 387 -70 73 -60 71 -193 40
-160 -37 -447 -30 -589 15 -34 10 -62 19 -64 19 -1 0 -24 -19 -49 -42z m17
-323 c0 -45 -4 -55 -25 -69 -31 -20 -49 -20 -80 0 -21 14 -25 24 -25 69 0 49
2 55 33 72 31 19 33 19 65 0 30 -18 32 -23 32 -72z m176 69 c30 -24 34 -31 34
-74 0 -40 -4 -50 -25 -64 -31 -21 -60 -20 -85 1 -15 13 -20 30 -20 70 0 47 3
55 25 65 14 6 25 15 25 20 0 13 9 10 46 -18z"/>
<path d="M242 870 c-42 -40 -83 -111 -96 -164 -5 -22 -2 -33 13 -47 20 -19 21
-19 40 0 10 10 23 27 29 37 12 22 11 23 39 -38 18 -37 32 -52 65 -67 53 -24
233 -45 350 -40 124 6 105 -16 -21 -24 -145 -9 -351 22 -351 53 0 21 -30 9
-47 -20 -9 -16 -20 -30 -23 -30 -4 0 -16 18 -29 40 -20 37 -57 68 -67 57 -9
-9 31 -113 53 -137 13 -14 23 -28 23 -32 0 -15 57 -73 97 -98 l43 -27 -40 -7
c-22 -3 -40 -11 -40 -17 0 -17 66 -79 85 -79 9 0 33 16 53 36 l36 36 93 -13
c71 -9 110 -10 164 -2 39 6 72 13 74 15 2 2 -2 22 -8 45 -6 23 -8 45 -5 48 16
16 131 28 181 19 58 -11 77 -9 77 8 0 6 11 25 24 42 31 42 62 104 71 144 l7
33 -49 -23 c-26 -13 -51 -27 -54 -31 -3 -5 -9 1 -12 12 -3 12 -1 19 4 15 5 -3
9 -2 9 3 0 4 23 19 51 31 48 23 50 25 43 55 -11 53 -52 125 -95 168 l-40 40
-32 -21 c-57 -37 -160 -87 -239 -115 l-78 -28 -77 28 c-81 28 -186 79 -238
114 -16 12 -33 21 -36 21 -4 0 -25 -18 -47 -40z"/>
</g>
</svg>
