<?xml version="1.0" standalone="no"?>
<!DOCTYPE svg PUBLIC "-//W3C//DTD SVG 20010904//EN"
 "http://www.w3.org/TR/2001/REC-SVG-20010904/DTD/svg10.dtd">
<svg version="1.0" xmlns="http://www.w3.org/2000/svg"
 width="100%" height="100%" viewBox="0 0 370.000000 368.000000"
 preserveAspectRatio="xMidYMid meet">
<g transform="translate(0.000000,368.000000) scale(0.100000,-0.100000)"
fill="#676680" stroke="none">
<path d="M0 1840 l0 -1840 1850 0 1850 0 0 1840 0 1840 -1850 0 -1850 0 0
-1840z"/>
</g>
<g transform="translate(0.000000,368.000000) scale(0.100000,-0.100000)"
fill="#000000" stroke="none">
<path d="M0 3200 l0 -480 445 0 445 0 0 -425 0 -425 -445 0 -445 0 0 -480 0
-480 445 0 445 0 0 -430 0 -430 -445 0 -445 0 0 -25 0 -25 1850 0 1850 0 0 25
0 25 -465 0 -465 0 0 430 0 430 465 0 465 0 0 480 0 480 -465 0 -465 0 0 425
0 425 465 0 465 0 0 480 0 480 -1850 0 -1850 0 0 -480z m1820 0 l0 -430 -885
0 -885 0 0 430 0 430 885 0 885 0 0 -430z m1830 0 l0 -430 -890 0 -890 0 0
430 0 430 890 0 890 0 0 -430z m-930 -905 l0 -425 -890 0 -890 0 0 425 0 425
890 0 890 0 0 -425z m-900 -905 l0 -430 -885 0 -885 0 0 430 0 430 885 0 885
0 0 -430z m1830 0 l0 -430 -890 0 -890 0 0 430 0 430 890 0 890 0 0 -430z
m-930 -910 l0 -430 -890 0 -890 0 0 430 0 430 890 0 890 0 0 -430z"/>
</g>

</svg>
